<svg width="16" height="16" viewBox="0 0 16 16" fill="none" xmlns="http://www.w3.org/2000/svg">
<path d="M9.10216 7.983L15.3197 1.78213C15.4425 1.63904 15.5067 1.45497 15.4994 1.26672C15.4921 1.07847 15.4139 0.899895 15.2803 0.766681C15.1468 0.633468 14.9677 0.555427 14.7789 0.548156C14.5902 0.540885 14.4056 0.604918 14.2622 0.727459L8.04466 6.92833L1.82716 0.719979C1.68593 0.579129 1.49438 0.5 1.29466 0.5C1.09493 0.5 0.903385 0.579129 0.762158 0.719979C0.62093 0.860829 0.541589 1.05186 0.541589 1.25105C0.541589 1.45025 0.62093 1.64128 0.762158 1.78213L6.98716 7.983L0.762158 14.1839C0.683646 14.2509 0.619881 14.3334 0.574864 14.4262C0.529846 14.519 0.504549 14.6201 0.500559 14.7231C0.496569 14.8261 0.513973 14.9289 0.551679 15.0249C0.589385 15.1208 0.646579 15.208 0.71967 15.2809C0.792761 15.3538 0.880171 15.4109 0.976415 15.4485C1.07266 15.4861 1.17566 15.5034 1.27895 15.4994C1.38224 15.4955 1.48359 15.4702 1.57664 15.4253C1.66968 15.3804 1.75242 15.3168 1.81966 15.2385L8.04466 9.03767L14.2622 15.2385C14.4056 15.3611 14.5902 15.4251 14.7789 15.4178C14.9677 15.4106 15.1468 15.3325 15.2803 15.1993C15.4139 15.0661 15.4921 14.8875 15.4994 14.6993C15.5067 14.511 15.4425 14.327 15.3197 14.1839L9.10216 7.983Z" fill="#ABA7AF"/>
</svg>
