<svg width="4" height="14" viewBox="0 0 4 14" fill="none" xmlns="http://www.w3.org/2000/svg">
<path d="M2 3.5625C1.5856 3.5625 1.18817 3.39788 0.895146 3.10485C0.60212 2.81183 0.4375 2.4144 0.4375 2C0.4375 1.5856 0.60212 1.18817 0.895146 0.895146C1.18817 0.60212 1.5856 0.4375 2 0.4375C2.4144 0.4375 2.81183 0.60212 3.10485 0.895146C3.39788 1.18817 3.5625 1.5856 3.5625 2C3.5625 2.4144 3.39788 2.81183 3.10485 3.10485C2.81183 3.39788 2.4144 3.5625 2 3.5625ZM2 8.5625C1.5856 8.5625 1.18817 8.39788 0.895146 8.10485C0.60212 7.81183 0.4375 7.4144 0.4375 7C0.4375 6.5856 0.60212 6.18817 0.895146 5.89515C1.18817 5.60212 1.5856 5.4375 2 5.4375C2.4144 5.4375 2.81183 5.60212 3.10485 5.89515C3.39788 6.18817 3.5625 6.5856 3.5625 7C3.5625 7.4144 3.39788 7.81183 3.10485 8.10485C2.81183 8.39788 2.4144 8.5625 2 8.5625ZM0.4375 12C0.4375 12.4144 0.60212 12.8118 0.895146 13.1049C1.18817 13.3979 1.5856 13.5625 2 13.5625C2.4144 13.5625 2.81183 13.3979 3.10485 13.1049C3.39788 12.8118 3.5625 12.4144 3.5625 12C3.5625 11.5856 3.39788 11.1882 3.10485 10.8951C2.81183 10.6021 2.4144 10.4375 2 10.4375C1.5856 10.4375 1.18817 10.6021 0.895146 10.8951C0.60212 11.1882 0.4375 11.5856 0.4375 12Z" fill="#ABA7AF"/>
</svg>
